<?xml version="1.0" encoding="utf-8"?>
<!-- Generator: Adobe Illustrator 19.0.0, SVG Export Plug-In . SVG Version: 6.00 Build 0)  -->
<svg version="1.1" id="Layer_1" xmlns="http://www.w3.org/2000/svg" xmlns:xlink="http://www.w3.org/1999/xlink" x="0px" y="0px"
	 viewBox="0 0 1200 332" style="enable-background:new 0 0 1200 332;" xml:space="preserve">
<style type="text/css">
	.st0{clip-path:url(#XMLID_147_);fill:url(#XMLID_148_);}
	.st1{fill:#58595B;}
	.st2{fill:#231F20;}
</style>
<g id="XMLID_22_">
	<g id="XMLID_57_">
		<defs>
			<path id="XMLID_59_" d="M547.2,34.1c0-0.1,0.1-0.2,0.1-0.3c0-0.4-0.2-0.7-0.2-1.1c-0.1-0.6-0.2-1.2-0.4-1.8
				c-0.1-0.3-0.3-0.6-0.5-0.9c-0.3-0.7-0.7-1.3-1.2-1.8c-0.3-0.3-0.7-0.5-1-0.8c-0.4-0.3-0.7-0.6-1.1-0.8c-0.1,0-0.1,0-0.2-0.1
				c-0.8-0.4-1.8-0.6-2.7-0.7c-0.2,0-0.4-0.1-0.6-0.1c-0.1,0-0.1,0-0.2,0H340.8c-0.1,0-0.2,0.1-0.3,0.1c-0.5,0-1,0.2-1.5,0.3
				c-0.6,0.1-1.1,0.2-1.6,0.5c-0.1,0-0.2,0-0.3,0.1c-0.5,0.2-0.8,0.6-1.3,1c-0.3,0.2-0.6,0.4-0.8,0.6c-0.6,0.6-1,1.3-1.4,2
				c-0.1,0.2-0.2,0.4-0.3,0.6c-0.3,0.7-0.4,1.4-0.4,2.2c0,0.3-0.2,0.5-0.2,0.8c0,0.1,0,0.1,0,0.2c0,0.5,0.2,1,0.3,1.5
				c0.1,0.6,0.3,1.2,0.5,1.8c0,0,0,0.1,0,0.1l99,198.5c1.3,3,3.9,4.3,7.3,4.3s6-1.3,7.3-4.3l99-198.5c0,0,0-0.1,0-0.1
				c0.3-0.6,0.5-1.3,0.6-2C547,34.9,547.2,34.5,547.2,34.1z M431.1,172.7L377.7,66.2c-3.3-6.6,1.5-14.4,8.9-14.4h106.8
				c7.4,0,12.2,7.8,8.9,14.4l-53.4,106.5C445.2,180,434.7,180,431.1,172.7z"/>
		</defs>
		<clipPath id="XMLID_147_">
			<use xlink:href="#XMLID_59_"  style="overflow:visible;"/>
		</clipPath>
		
			<linearGradient id="XMLID_148_" gradientUnits="userSpaceOnUse" x1="1089.4377" y1="1868.4648" x2="1329.8594" y2="1868.4648" gradientTransform="matrix(-1 0 0 -1 1649.6228 2001.4758)">
			<stop  offset="0" style="stop-color:#BE1E2D"/>
			<stop  offset="0.4949" style="stop-color:#F05A28"/>
			<stop  offset="1" style="stop-color:#FAAF40"/>
		</linearGradient>
		<rect id="XMLID_20_" x="319.8" y="12.8" class="st0" width="240.4" height="240.4"/>
	</g>
	<g id="XMLID_54_">
		<path id="XMLID_55_" class="st1" d="M128.8,50.5c3.3,1.9,4.5,6,2.6,9.3c-1.5,4.1-5.9,4.8-9.3,3l-10.8-5.6l-10.4-3.7l-10.8-2.2
			l-10.4-0.7l-8.2,0.4L63,52.3l-8.6,2.6l-8.5,3.3l-8.2,4.5l-7.8,5.6l-6.7,6.3l-4.8,5.6v134.6c0,4.1-3,7.1-7.1,7.1s-7.1-3-7.1-7.1
			V43.4c0-4.1,3-6.7,7.1-6.7s7.1,2.6,7.1,6.7v16.7l2.6-2.2c0,0,0.4-0.4,0.7-0.7l8.2-6c0.4-0.4,0.4-0.4,0.7-0.4l8.9-5.2h0.7l9.3-4.1
			h0.7l9.3-2.6c0.4-0.4,0.4-0.4,0.7-0.4l9.3-1.5h0.7l8.9-0.4h1.1l11.2,0.7h0.7l11.9,2.2c0,0.4,0.4,0.4,0.7,0.4l11.5,4.1
			c0.4,0,0.7,0.4,1.1,0.4L128.8,50.5z"/>
	</g>
	<g id="XMLID_50_">
		<path id="XMLID_51_" class="st1" d="M331.4,134.5c-0.4,0-0.4,0-0.4,0.4h-0.4v0.4h-0.4c0,0.4,0,0.4-0.4,0.4h-0.4
			c0,0.4,0,0.4-0.4,0.4c0,0,0,0-0.4,0.4h-0.4h-0.4h-0.4l-0.4,0.4h-0.7h-0.4H162.3v0.4l1.1,7.1l1.9,7.4l2.2,7.4l3.3,7.1l4.1,6.7
			l4.5,6.3l5.6,6.3l6,5.2l6.7,4.8l7.1,4.1l7.4,3.3l7.1,2.6l7.4,1.5l7.4,1.1l7.1,0.4l7.8-0.4l8.6-1.5l8.6-2.6l8.6-3.3l8.2-4.5
			l7.8-5.6l6.7-6.3l6.7-7.8c2.6-3,6.7-3.3,9.7-0.7c3,2.6,3.3,7.1,0.7,9.7l-6.7,8.2l-0.4,0.4l-7.8,7.1c0,0-0.4,0.4-0.7,0.7l-8.2,5.9
			c-0.4,0-0.4,0.4-0.7,0.4l-8.9,4.8c-0.4,0.4-0.4,0.4-0.7,0.4l-9.3,3.7c0,0.4-0.4,0.4-0.7,0.4l-9.3,2.6c-0.4,0-0.4,0.4-0.7,0.4
			l-9.3,1.5H250l-8.9,0.4l-8.6-0.4l-8.6-1.1l-8.6-1.9l-8.6-3l-8.6-3.7l-0.4-0.4l-7.8-4.5l-0.4-0.4l-7.1-5.2c-0.4,0-0.4,0-0.7-0.4
			l-6.7-6c0-0.4,0-0.4-0.4-0.4l-6-6.7c0-0.4-0.4-0.4-0.4-0.7l-5.2-7.1c-0.4,0-0.4,0-0.4-0.4l-4.5-7.8l-4.1-8.2l-2.6-8.5l-2.2-8.9
			l-1.1-8.6l-0.4-8.2v-0.4v-0.7l0.4-7.1l1.1-8.6l1.9-8.9l3-8.6l3.7-8.2c0-0.4,0-0.4,0.4-0.7l4.5-7.4c0-0.4,0-0.4,0.4-0.7l5.2-7.1
			c0-0.4,0.4-0.4,0.4-0.7l6-6.3c0-0.4,0.4-0.4,0.4-0.7l6.7-6c0,0,0.4,0,0.7-0.4l7.1-5.2l0.4-0.4l7.4-4.5c0.4,0,0.7,0,0.7-0.4
			l7.8-3.3c0.4,0,0.4-0.4,0.7-0.4l7.8-2.6l8.9-2.2l8.2-1.1l8.6-0.4l8.2,0.4l8.6,1.1l8.6,1.9l8.9,3l0.4,0.4l7.8,3.3l8.2,4.8
			c0.4,0,0.4,0.4,0.7,0.4l7.1,5.2l0.4,0.4l6.7,6l0.7,0.7l6,6.3c0,0.4,0,0.4,0.4,0.7l5.2,7.1c0,0.4,0,0.4,0.4,0.7l4.5,7.4v0.7
			l3.7,7.8l3,8.6l2.2,8.5l1.1,8.6l0.4,8.2v0.4v0.4v0.4v0.4l-0.4,0.4v0.4v0.4v0.4c-0.4,0-0.4,0-0.4,0.4v0.4c0,0,0,0-0.4,0.4
			c0,0,0,0-0.4,0.4v0.4h-0.4V134.5z M162.3,122.6h156.9l-0.4-0.4l-0.7-7.1l-1.9-7.4l-2.6-7.4l-3-6.7l-4.1-7.1l-4.8-6.3l-5.6-6.3
			l-5.9-5.2l-6.3-4.8l-7.4-4.1l-6.7-3.3l-7.8-2.6l-7.4-1.5l-7.1-1.1l-7.1-0.4l-7.1,0.4l-7.4,1.1l-7.1,1.9l-7.1,2.2l-7.1,3.3
			l-7.1,4.1l-6.7,4.8l-6,5.2l-5.6,6.3l-4.5,6.3l-4.1,7.1l-3.3,7.4l-2.6,7.4l-1.9,7.1L162.3,122.6z"/>
	</g>
	<g id="XMLID_46_">
		<path id="XMLID_47_" class="st1" d="M642.9,219.2l-7.8-0.4l-8.6-1.1l-8.6-1.9l-8.5-3l-8.6-3.7c-0.4-0.4-0.4-0.4-0.7-0.4l-7.4-4.5
			c-0.4,0-0.4-0.4-0.7-0.4l-7.1-5.2l-0.4-0.4l-6.7-6c0-0.4-0.4-0.4-0.4-0.7l-5.9-6.3l-0.7-0.7l-5.2-7.1c0-0.4,0-0.4-0.4-0.4
			l-4.1-7.8c-0.4-0.4-0.4-0.4-0.4-0.4l-3.7-7.8l-3-8.9l-1.9-8.6l-1.5-8.6l-0.4-8.2l0.4-8.6l1.1-8.2l2.2-8.9l3-8.5l3.7-8.6
			c0-0.4,0-0.4,0.4-0.4l4.1-7.4c0.4-0.4,0.4-0.7,0.4-0.7l5.2-7.1l0.7-0.7l5.9-6.3c0-0.4,0.4-0.4,0.4-0.7l6.7-5.9l0.4-0.4l7.1-5.2
			c0.4,0,0.4-0.4,0.7-0.4l7.4-4.5c0.4,0,0.4,0,0.7-0.4l7.8-3.3c0.4-0.4,0.4-0.4,0.7-0.4l7.8-2.6l8.6-2.2l8.6-1.1l8.6-0.4l8.2,0.4
			l8.6,1.1l8.6,1.9l8.5,3c0.4,0,0.4,0.4,0.7,0.4l7.8,3.3c0.4,0.4,0.4,0.4,0.7,0.4l7.4,4.5c0.4,0,0.4,0.4,0.7,0.4l7.1,5.2l0.4,0.4
			l6.7,5.9c0,0.4,0.4,0.4,0.4,0.7l5.9,6.3c0.4,0.4,0.4,0.4,0.4,0.7l5.2,7.1c0.4,0,0.4,0.4,0.4,0.7l4.5,7.4c0.4,0.4,0.4,0.4,0.4,0.4
			l3.7,7.8l3,8.9l1.9,8.6l1.1,8.5l0.7,8.2l-0.4,8.6l-1.1,8.5l-2.2,8.6l-3,8.6l-3.7,8.6l-4.8,8.2c0,0.4,0,0.4-0.4,0.4l-5.2,7.1
			c0,0.4,0,0.4-0.4,0.7l-5.9,6.3c0,0.4-0.4,0.4-0.4,0.7l-6.7,6l-0.4,0.4l-7.1,5.2c-0.4,0-0.4,0.4-0.7,0.4l-7.4,4.5
			c-0.4,0-0.4,0-0.7,0.4l-7.8,3.3l-8.6,3l-8.6,2.2l-8.6,1.1l-8.6,0.4H642.9z M606.9,196.5l7.4,3.3l7.4,2.6l7.4,1.5l7.1,1.1l6.7,0.4
			l7.4-0.4l7.4-1.1l7.4-1.9l7.1-2.6l7.1-3l6.7-4.1l6.7-4.8l6-5.2l5.6-6.3l4.8-6.3l4.1-7.4l3.3-7.1l2.2-7.4l1.9-7.1l0.7-7.4l0.4-7.1
			l-0.4-7.1l-1.1-7.1l-1.5-7.4l-2.6-7.4l-3.3-6.7l-3.7-7.1l-4.8-6.3l-5.6-6.3l-6-5.2l-6.7-4.8l-6.7-4.1l-7.4-3.3l-7.4-2.6l-7.4-1.5
			l-7.1-1.1l-7.1-0.4l-7.1,0.4l-7.4,1.1l-7.4,1.9l-6.7,2.2l-7.4,3.3l-6.7,4.1l-6.7,4.8l-6,5.2l-5.6,6.3l-4.8,6.3l-4.1,7.1l-3.3,7.4
			l-2.2,7.4l-1.9,7.1l-0.7,7.4l-0.4,7.1l0.4,7.1l0.7,7.1l1.9,7.4l2.6,7.4l3,6.7l4.1,7.1l4.8,6.3l5.6,6.3l6,5.2l6.7,4.8L606.9,196.5z
			"/>
	</g>
	<g id="XMLID_44_">
		<path id="XMLID_12_" class="st1" d="M784.6,47.9v166.9c0,4.1-3,6.7-7.1,6.7s-7.1-2.6-7.1-6.7V47.9c0-4.8,2.2-7.1,7.1-7.1
			C781.6,40.8,784.6,43.8,784.6,47.9z"/>
	</g>
	<g id="XMLID_41_">
		<path id="XMLID_42_" class="st1" d="M912.8,223l-8.6-0.4l-8.5-1.1l-8.6-1.9l-8.6-3l-8.6-3.7c-0.4-0.4-0.4-0.4-0.7-0.4l-7.4-4.5
			c-0.4,0-0.4,0-0.4-0.4l-7.4-5.2c-0.4,0-0.4,0-0.4-0.4l-6.7-5.9l-0.4-0.4l-6-6.7l-0.4-0.4l-5.2-7.4c-0.4-0.4-0.4-0.4-0.4-0.4
			l-4.5-7.4c-0.4-0.4-0.4-0.7-0.4-0.7l-3.7-7.8l-3-8.6l-1.9-8.9l-1.1-8.2l-0.4-8.6l0.4-8.2l1.1-8.6l1.9-8.6l3-8.9l3.7-8.2
			c0-0.4,0.4-0.4,0.4-0.7l4.5-7.4c0-0.4,0-0.4,0.4-0.7l5.2-7.1l0.4-0.4l6-6.7c0-0.4,0.4-0.4,0.4-0.7l6.7-5.6c0-0.4,0.4-0.4,0.4-0.7
			l7.4-5.2c0.4,0,0.4,0,0.4-0.4l7.4-4.1c0.4-0.4,0.7-0.4,0.7-0.4l7.8-3.7c0.4,0,0.4,0,0.7-0.4l7.8-2.6l8.9-1.9l8.2-1.5l8.6-0.4
			l9.7,0.4c0.4,0.4,0.4,0.4,0.7,0.4l9.3,1.5h0.7l9.3,2.6c0.4,0.4,0.7,0.4,0.7,0.4l9.3,3.7c0.4,0,0.4,0.4,0.7,0.4l8.9,4.8
			c0.4,0.4,0.4,0.4,0.7,0.4l8.2,6.3c0.4,0.4,0.7,0.4,0.7,0.4l7.8,7.1c0,0.4,0.4,0.4,0.4,0.7l6.7,7.8c2.6,3,2.2,7.1-0.7,9.7
			c-3,2.6-7.1,2.2-9.7-0.7l-6.7-7.4l-6.7-6.7l-7.8-5.2l-8.2-4.8l-8.5-3.3l-8.6-2.2l-8.6-1.5l-8.6-0.4l-7.1,0.4l-7.4,0.7l-7.1,1.9
			l-7.1,2.6l-7.1,3l-7.1,4.1l-6.7,4.8l-6,5.6l-5.6,6l-4.5,6.7l-4.1,6.7l-3.3,7.4l-2.6,7.4l-1.9,7.4l-0.7,7.1l-0.4,7.1l0.4,7.1
			l1.1,7.4l1.5,7.1l2.6,7.4l3.3,6.7l4.1,7.1l4.5,6.7l5.6,6l6,5.6l6.7,4.5l7.1,4.1l7.4,3.3l7.1,2.6l7.4,1.9l7.4,0.7l7.1,0.4l7.8-0.4
			l8.6-1.5l8.6-2.2l8.5-3.7l8.2-4.5l7.8-5.6l6.7-6.3l6.7-7.8c2.6-3,6.7-3.3,9.7-0.7c3,2.6,3.3,7.1,0.7,10l-6.7,7.8
			c-0.4,0.4-0.4,0.4-0.4,0.7l-7.8,6.7c0,0-0.4,0.4-0.7,0.7l-8.2,6c-0.4,0.4-0.4,0.4-0.7,0.4l-8.9,5.2c-0.4,0-0.4,0-0.7,0.4l-9.3,3.7
			h-0.7l-9.3,2.6c-0.4,0.4-0.4,0.4-0.7,0.4l-9.3,1.5h-0.7L912.8,223z"/>
	</g>
	<g id="XMLID_37_">
		<path id="XMLID_38_" class="st1" d="M1193.9,134.5c-0.4,0-0.4,0-0.4,0.4h-0.4v0.4h-0.4c0,0.4,0,0.4-0.4,0.4h-0.4
			c0,0.4,0,0.4-0.4,0.4c0,0,0,0-0.4,0.4h-0.4h-0.4h-0.4l-0.4,0.4h-0.7h-0.4h-163.9v0.4l1.1,7.1l1.9,7.4l2.2,7.4l3.3,7.1l4.1,6.7
			l4.5,6.3l5.6,6.3l6,5.2l6.7,4.8l7.1,4.1l7.4,3.3l7.1,2.6l7.4,1.5l7.4,1.1l7.1,0.4l7.8-0.4l8.6-1.5l8.6-2.6l8.6-3.3l8.2-4.5
			l7.8-5.6l6.7-6.3l6.7-7.8c2.6-3,6.7-3.3,9.7-0.7s3.3,7.1,0.7,9.7l-6.7,8.2l-0.4,0.4l-7.8,7.1c0,0-0.4,0.4-0.7,0.7l-8.2,5.9
			c-0.4,0-0.4,0.4-0.7,0.4l-8.9,4.8c-0.4,0.4-0.4,0.4-0.7,0.4l-9.3,3.7c0,0.4-0.4,0.4-0.7,0.4l-9.3,2.6c-0.4,0-0.4,0.4-0.7,0.4
			l-9.3,1.5h-0.7l-8.9,0.4l-8.6-0.4l-8.6-1.1l-8.6-1.9l-8.6-3l-8.6-3.7l-0.4-0.4l-7.8-4.5l-0.4-0.4l-7.1-5.2c-0.4,0-0.4,0-0.7-0.4
			l-6.7-6c0-0.4,0-0.4-0.4-0.4l-6-6.7c0-0.4-0.4-0.4-0.4-0.7l-5.2-7.1c-0.4,0-0.4,0-0.4-0.4l-4.5-7.8l-4.1-8.2l-2.6-8.5l-2.2-8.9
			l-1.1-8.6l-0.4-8.2v-0.4v-0.7l0.4-7.1l1.1-8.6l1.9-8.9l3-8.6l3.7-8.2c0-0.4,0-0.4,0.4-0.7l4.5-7.4c0-0.4,0-0.4,0.4-0.7l5.2-7.1
			c0-0.4,0.4-0.4,0.4-0.7l6-6.3c0-0.4,0.4-0.4,0.4-0.7l6.7-6c0,0,0.4,0,0.7-0.4l7.1-5.2l0.4-0.4l7.4-4.5c0.4,0,0.7,0,0.7-0.4
			l7.8-3.3c0.4,0,0.4-0.4,0.7-0.4l7.8-2.6l8.9-2.2l8.2-1.1l8.6-0.4l8.2,0.4l8.6,1.1l8.6,1.9l8.9,3l0.4,0.4l7.8,3.3l8.2,4.8
			c0.4,0,0.4,0.4,0.7,0.4l7.1,5.2l0.4,0.4l6.7,6l0.7,0.7l6,6.3c0,0.4,0,0.4,0.4,0.7l5.2,7.1c0,0.4,0,0.4,0.4,0.7l4.5,7.4v0.7
			l3.7,7.8l3,8.6l2.2,8.5l1.1,8.6l0.4,8.2v0.4v0.4v0.4v0.4l-0.4,0.4v0.4v0.4v0.4c-0.4,0-0.4,0-0.4,0.4v0.4c0,0,0,0-0.4,0.4
			c0,0,0,0-0.4,0.4v0.4h-0.4V134.5z M1024.7,122.6h156.9l-0.4-0.4l-0.7-7.1l-1.9-7.4l-2.6-7.4l-3-6.7l-4.1-7.1l-4.8-6.3l-5.6-6.3
			l-5.9-5.2l-6.3-4.8l-7.4-4.1l-6.7-3.3l-7.8-2.6l-7.4-1.5l-7.1-1.1l-7.1-0.4l-7.1,0.4l-7.4,1.1l-7.1,1.9l-7.1,2.2l-7.1,3.3
			l-7.1,4.1l-6.7,4.8l-6,5.2l-5.6,6.3l-4.5,6.3l-4.1,7.1l-3.3,7.4l-2.6,7.4l-1.9,7.1L1024.7,122.6z"/>
	</g>
	<g id="XMLID_25_">
		<path id="XMLID_35_" class="st2" d="M948.3,330.1H911c-0.5,0-1-0.5-1-1v-71.7c0-0.6,0.4-1,1-1c0.6,0,1,0.4,1,1v70.7h36.4
			c0.6,0,1,0.4,1,1C949.3,329.7,948.9,330.1,948.3,330.1z"/>
		<path id="XMLID_32_" class="st2" d="M1026.6,330.1c-0.4,0-0.7-0.2-0.9-0.7l-8-23.8h-30.1l-8,23.8c-0.2,0.5-0.5,0.7-0.9,0.7
			c-0.5,0-1-0.3-1-0.9c0-0.2,0.1-0.4,0.1-0.4l23.9-71.7c0.2-0.6,0.5-0.9,0.9-0.9s0.7,0.3,0.9,0.9l23.9,71.7c0,0,0.1,0.3,0.1,0.5
			C1027.6,329.9,1027.1,330.1,1026.6,330.1z M1002.6,260.6l-14.3,43h28.7L1002.6,260.6z"/>
		<path id="XMLID_28_" class="st2" d="M1082.7,330.1H1062c-0.5,0-1-0.5-1-1v-71.7c0-0.5,0.5-1,1-1h20.7c10.1,0,18.2,8.1,18.2,18.1
			c0,7.9-5.1,14.7-12.2,17.2c7.9,2.6,13.6,9.9,13.6,18.6C1102.4,321.3,1093.5,330.1,1082.7,330.1z M1082.7,258.4H1063v32.4h19.7
			c9,0,16.2-7.3,16.2-16.2C1098.9,265.6,1091.7,258.4,1082.7,258.4z M1082.7,292.8H1063v35.4h19.7c9.8,0,17.7-8,17.7-17.7
			C1100.4,300.6,1092.4,292.8,1082.7,292.8z"/>
		<path id="XMLID_26_" class="st2" d="M1155.3,331.1c-13.3,0-19.1-8.4-19.2-8.5c-0.1-0.2-0.2-0.4-0.2-0.6c0-0.6,0.5-1,1-1
			c0.3,0,0.6,0.1,0.8,0.4c0,0,0.3,0.5,1,1.2c4.3,4.5,10.6,6.5,16.6,6.5c12.4,0,21.4-7,21.4-17c0-23.8-40.4-15.5-40.4-39.1
			c0-11.1,9.5-17.6,19.9-17.6c7.2,0,15.6,3.9,20,9.8c0.2,0.2,0.2,0.4,0.2,0.6c0,0.5-0.5,1-1,1c-0.3,0-0.6-0.1-0.8-0.4
			c0,0-0.4-0.6-1.2-1.4c-4.5-4.7-10.7-7.6-17.2-7.6c-9.7,0-17.9,6-17.9,15.6c0,21.6,40.3,13.5,40.3,39.1
			C1178.7,323.6,1168.2,331.1,1155.3,331.1z"/>
	</g>
	<g id="XMLID_23_">
		<path id="XMLID_1_" class="st1" d="M777.2,0.9c6.9,0,12.7,5.5,12.7,12.7c0,7.2-5.8,12.2-12.7,12.2c-6.9,0-12.2-5-12.2-12.2
			C765.1,6.4,770.4,0.9,777.2,0.9z"/>
	</g>
</g>
</svg>
